<?xml version="1.0" encoding="UTF-8"?>
<!-- Created with Inkscape (http://www.inkscape.org/) -->
<svg width="793.7" height="1122.5" version="1.1" viewBox="0 0 210 297" xmlns="http://www.w3.org/2000/svg">
 <g transform="matrix(1.9616 0 0 .90309 -90.54 13.929)">
  <text transform="scale(.26458)" fill="#000000" font-family="sans-serif" font-size="40px" letter-spacing="0px" word-spacing="0px" style="line-height:1.25;shape-inside:url(#rect2);white-space:pre" xml:space="preserve"/>
  <g fill="#800000" stroke-width="2.2653">
   <path d="m108.37 107.32v7.7923h8.4501v12.414h8.4269v-20.207z" style="white-space:pre"/>
   <path d="m98.094 115.11v-7.7923h-4.1951c-1.5489 4.3451-3.1202 8.6839-4.6064 13.047-0.21152 0.86551-1.2049 1.1331-1.9663 0.84439-1.1929-3.383-2.3873-6.7656-3.5812-10.148v35.763h33.071v4.301h8.4269v-7.4724l-4.6209-4.6214h-28.45v-23.922z" style="white-space:pre"/>
   <path d="m83.745 159.33v15.857l4.6209 4.6214h32.256l4.6209-4.6214v-14.151h-8.4269v10.979h-24.644v-12.686z" style="white-space:pre"/>
   <path d="m63.179 69.197v7.7024h5.8896v50.44h-5.8896v7.7019h15.458v-7.7019h-1.4139v-37.936l5.948 16.853 0.57361 1.6247 4.3522 12.331h0.09043l4.5894-12.896 0.37724-1.0594 5.9976-16.853v37.936h-1.4139v7.7019h15.458v-7.7019h-5.8896v-50.44h5.8896v-7.7024h-14.226l-10.783 31.624-10.783-31.624z" style="white-space:pre"/>
   <path d="m115.48 180.86h-8.4269v29.596h-5.8896v7.7928h22.019v-7.7928h-7.7024v-17.048h13.23v-7.7018h-13.23z" style="white-space:pre"/>
   <path d="m101.17 152.18v7.7928h5.8896v10.978c2.809 0 5.6179 1e-5 8.4269 0v-10.978h11.327v12.142h7.5205v-19.935h-18.573z" style="white-space:pre"/>
  </g>
 </g>
</svg>
